NotoSansOldTurkic-Regular.ufo
<glyph name="u10C00" format="2">
  <advance width="657"/>
  <unicode hex="10C00"/>
  <outline>
    <contour>
      <point x="279" y="0" type="line"/>
      <point x="369" y="0" type="line"/>
      <point x="369" y="612" type="line"/>
      <point x="588" y="455" type="line"/>
      <point x="637" y="525" type="line"/>
      <point x="369" y="714" type="line"/>
      <point x="279" y="714" type="line"/>
      <point x="279" y="103" type="line"/>
      <point x="71" y="252" type="line"/>
      <point x="20" y="179" type="line"/>
    </contour>
  </outline>
</glyph>
<glyph name="u10C01" format="2">
  <advance width="657"/>
  <unicode hex="10C01"/>
  <outline>
    <contour>
      <point x="288" y="0" type="line"/>
      <point x="378" y="0" type="line"/>
      <point x="637" y="179" type="line"/>
      <point x="586" y="252" type="line"/>
      <point x="378" y="103" type="line"/>
      <point x="378" y="714" type="line"/>
      <point x="288" y="714" type="line"/>
      <point x="20" y="525" type="line"/>
      <point x="69" y="455" type="line"/>
      <point x="288" y="612" type="line"/>
    </contour>
  </outline>
</glyph>
<glyph name="u10C02" format="2">
  <advance width="546"/>
  <unicode hex="10C02"/>
  <outline>
    <contour>
      <point x="118" y="-14" type="line"/>
      <point x="273" y="202" type="line"/>
      <point x="428" y="-14" type="line"/>
      <point x="501" y="31" type="line"/>
      <point x="319" y="283" type="line"/>
      <point x="319" y="426" type="line"/>
      <point x="501" y="678" type="line"/>
      <point x="428" y="723" type="line"/>
      <point x="273" y="507" type="line"/>
      <point x="118" y="723" type="line"/>
      <point x="45" y="678" type="line"/>
      <point x="227" y="426" type="line"/>
      <point x="227" y="283" type="line"/>
      <point x="45" y="31" type="line"/>
    </contour>
  </outline>
</glyph>
<glyph name="u10C03" format="2">
  <advance width="478"/>
  <unicode hex="10C03"/>
  <outline>
    <contour>
      <point x="100" y="0" type="line"/>
      <point x="190" y="0" type="line"/>
      <point x="190" y="612" type="line"/>
      <point x="409" y="455" type="line"/>
      <point x="458" y="525" type="line"/>
      <point x="190" y="714" type="line"/>
      <point x="100" y="714" type="line"/>
    </contour>
  </outline>
</glyph>
<glyph name="u10C04" format="2">
  <advance width="478"/>
  <unicode hex="10C04"/>
  <outline>
    <contour>
      <point x="100" y="0" type="line"/>
      <point x="190" y="0" type="line"/>
      <point x="190" y="351" type="line"/>
      <point x="409" y="194" type="line"/>
      <point x="458" y="264" type="line"/>
      <point x="190" y="453" type="line"/>
      <point x="190" y="714" type="line"/>
      <point x="100" y="714" type="line"/>
    </contour>
  </outline>
</glyph>
<glyph name="u10C05" format="2">
  <advance width="509"/>
  <unicode hex="10C05"/>
  <outline>
    <contour>
      <point x="108" y="-9" type="line"/>
      <point x="163" y="23"/>
      <point x="212" y="56"/>
      <point x="254" y="90" type="curve"/>
      <point x="296" y="56"/>
      <point x="345" y="23"/>
      <point x="401" y="-9" type="curve"/>
      <point x="449" y="56" type="line"/>
      <point x="397" y="85"/>
      <point x="353" y="115"/>
      <point x="316" y="145" type="curve"/>
      <point x="382" y="213"/>
      <point x="419" y="285"/>
      <point x="419" y="361" type="curve" smooth="yes"/>
      <point x="419" y="437"/>
      <point x="382" y="508"/>
      <point x="316" y="576" type="curve"/>
      <point x="353" y="606"/>
      <point x="397" y="636"/>
      <point x="449" y="666" type="curve"/>
      <point x="401" y="731" type="line"/>
      <point x="345" y="699"/>
      <point x="296" y="666"/>
      <point x="254" y="632" type="curve"/>
      <point x="212" y="666"/>
      <point x="163" y="699"/>
      <point x="108" y="731" type="curve"/>
      <point x="60" y="666" type="line"/>
      <point x="111" y="636"/>
      <point x="155" y="606"/>
      <point x="193" y="576" type="curve"/>
      <point x="127" y="508"/>
      <point x="90" y="437"/>
      <point x="90" y="361" type="curve" smooth="yes"/>
      <point x="90" y="285"/>
      <point x="127" y="213"/>
      <point x="193" y="145" type="curve"/>
      <point x="155" y="115"/>
      <point x="111" y="85"/>
      <point x="60" y="56" type="curve"/>
    </contour>
    <contour>
      <point x="254" y="201" type="curve"/>
      <point x="204" y="255"/>
      <point x="178" y="309"/>
      <point x="178" y="361" type="curve" smooth="yes"/>
      <point x="178" y="413"/>
      <point x="204" y="466"/>
      <point x="254" y="520" type="curve"/>
      <point x="305" y="466"/>
      <point x="331" y="413"/>
      <point x="331" y="361" type="curve" smooth="yes"/>
      <point x="331" y="309"/>
      <point x="305" y="255"/>
    </contour>
  </outline>
</glyph>
<glyph name="u10C06" format="2">
  <advance width="412"/>
  <unicode hex="10C06"/>
  <outline>
    <contour>
      <point x="100" y="0" type="line"/>
      <point x="190" y="0" type="line"/>
      <point x="190" y="47" type="line" smooth="yes"/>
      <point x="190" y="167"/>
      <point x="202" y="207"/>
      <point x="387" y="357" type="curve"/>
      <point x="202" y="507"/>
      <point x="190" y="547"/>
      <point x="190" y="667" type="curve" smooth="yes"/>
      <point x="190" y="714" type="line"/>
      <point x="100" y="714" type="line"/>
      <point x="100" y="649" type="line" smooth="yes"/>
      <point x="100" y="537"/>
      <point x="118" y="472"/>
      <point x="256" y="357" type="curve"/>
      <point x="118" y="242"/>
      <point x="100" y="177"/>
      <point x="100" y="65" type="curve" smooth="yes"/>
    </contour>
  </outline>
</glyph>
<glyph name="u10C07" format="2">
  <advance width="601"/>
  <unicode hex="10C07"/>
  <outline>
    <contour>
      <point x="100" y="0" type="line"/>
      <point x="190" y="0" type="line"/>
      <point x="190" y="588" type="line"/>
      <point x="436" y="311" type="line"/>
      <point x="526" y="311" type="line"/>
      <point x="526" y="714" type="line"/>
      <point x="436" y="714" type="line"/>
      <point x="436" y="441" type="line"/>
      <point x="190" y="714" type="line"/>
      <point x="100" y="714" type="line"/>
    </contour>
  </outline>
</glyph>
<glyph name="u10C08" format="2">
  <advance width="606"/>
  <unicode hex="10C08"/>
  <outline>
    <contour>
      <point x="100" y="0" type="line"/>
      <point x="190" y="0" type="line"/>
      <point x="190" y="417" type="line"/>
      <point x="465" y="259" type="line"/>
      <point x="519" y="304" type="line"/>
      <point x="494" y="364"/>
      <point x="480" y="427"/>
      <point x="480" y="499" type="curve" smooth="yes"/>
      <point x="480" y="571"/>
      <point x="502" y="644"/>
      <point x="546" y="714" type="curve"/>
      <point x="451" y="714" type="line"/>
      <point x="416" y="650"/>
      <point x="393" y="585"/>
      <point x="393" y="504" type="curve" smooth="yes"/>
      <point x="393" y="469"/>
      <point x="396" y="421"/>
      <point x="410" y="381" type="curve"/>
      <point x="190" y="509" type="line"/>
      <point x="190" y="714" type="line"/>
      <point x="100" y="714" type="line"/>
    </contour>
  </outline>
</glyph>
<glyph name="u10C09" format="2">
  <advance width="599"/>
  <unicode hex="10C09"/>
  <outline>
    <contour>
      <point x="296" y="-10" type="curve" smooth="yes"/>
      <point x="457" y="-10"/>
      <point x="549" y="115"/>
      <point x="549" y="242" type="curve" smooth="yes"/>
      <point x="549" y="386"/>
      <point x="480" y="455"/>
      <point x="394" y="527" type="curve" smooth="yes"/>
      <point x="361" y="555"/>
      <point x="351" y="575"/>
      <point x="351" y="604" type="curve" smooth="yes"/>
      <point x="351" y="714" type="line"/>
      <point x="261" y="714" type="line"/>
      <point x="261" y="601" type="line" smooth="yes"/>
      <point x="261" y="542"/>
      <point x="277" y="508"/>
      <point x="342" y="454" type="curve" smooth="yes"/>
      <point x="416" y="392"/>
      <point x="459" y="338"/>
      <point x="459" y="242" type="curve" smooth="yes"/>
      <point x="459" y="144"/>
      <point x="398" y="73"/>
      <point x="298" y="73" type="curve" smooth="yes"/>
      <point x="195" y="73"/>
      <point x="140" y="146"/>
      <point x="140" y="237" type="curve" smooth="yes"/>
      <point x="140" y="304"/>
      <point x="163" y="365"/>
      <point x="181" y="392" type="curve"/>
      <point x="90" y="392" type="line"/>
      <point x="73" y="368"/>
      <point x="50" y="310"/>
      <point x="50" y="237" type="curve" smooth="yes"/>
      <point x="50" y="91"/>
      <point x="140" y="-10"/>
    </contour>
  </outline>
</glyph>
<glyph name="u10C0A" format="2">
  <advance width="764"/>
  <unicode hex="10C0A"/>
  <outline>
    <contour>
      <point x="382" y="-10" type="line"/>
      <point x="749" y="357" type="line"/>
      <point x="382" y="724" type="line"/>
      <point x="15" y="357" type="line"/>
      <point x="74" y="298" type="line"/>
      <point x="382" y="606" type="line"/>
      <point x="631" y="357" type="line"/>
      <point x="323" y="49" type="line"/>
    </contour>
  </outline>
</glyph>
<glyph name="u10C0C" format="2">
  <advance width="777"/>
  <unicode hex="10C0C"/>
  <outline>
    <contour>
      <point x="134" y="0" type="line"/>
      <point x="239" y="0" type="line"/>
      <point x="388" y="170" type="line"/>
      <point x="536" y="0" type="line"/>
      <point x="641" y="0" type="line"/>
      <point x="440" y="230" type="line"/>
      <point x="592" y="403" type="line"/>
      <point x="710" y="282" type="line"/>
      <point x="762" y="335" type="line"/>
      <point x="389" y="724" type="line"/>
      <point x="15" y="335" type="line"/>
      <point x="70" y="282" type="line"/>
      <point x="185" y="402" type="line"/>
      <point x="335" y="230" type="line"/>
    </contour>
    <contour>
      <point x="388" y="290" type="line"/>
      <point x="240" y="460" type="line"/>
      <point x="389" y="614" type="line"/>
      <point x="537" y="460" type="line"/>
    </contour>
  </outline>
</glyph>
<glyph name="u10C0D" format="2">
  <advance width="736"/>
  <unicode hex="10C0D"/>
  <outline>
    <contour>
      <point x="649" y="237" type="curve"/>
      <point x="696" y="302" type="line"/>
      <point x="583" y="363"/>
      <point x="532" y="427"/>
      <point x="532" y="479" type="curve" smooth="yes"/>
      <point x="532" y="529"/>
      <point x="587" y="593"/>
      <point x="696" y="655" type="curve"/>
      <point x="649" y="720" type="line"/>
      <point x="522" y="647"/>
      <point x="443" y="568"/>
      <point x="443" y="479" type="curve"/>
      <point x="443" y="391"/>
      <point x="524" y="312"/>
    </contour>
    <contour>
      <point x="323" y="0" type="line"/>
      <point x="412" y="0" type="line"/>
      <point x="412" y="375" type="line"/>
      <point x="323" y="375" type="line"/>
    </contour>
    <contour>
      <point x="87" y="237" type="line"/>
      <point x="212" y="312"/>
      <point x="293" y="391"/>
      <point x="293" y="479" type="curve" smooth="yes"/>
      <point x="293" y="568"/>
      <point x="214" y="647"/>
      <point x="87" y="720" type="curve"/>
      <point x="40" y="655" type="line"/>
      <point x="149" y="593"/>
      <point x="204" y="529"/>
      <point x="204" y="479" type="curve" smooth="yes"/>
      <point x="204" y="427"/>
      <point x="153" y="363"/>
      <point x="40" y="302" type="curve"/>
    </contour>
  </outline>
</glyph>
<glyph name="u10C0E" format="2">
  <advance width="716"/>
  <unicode hex="10C0E"/>
  <outline>
    <contour>
      <point x="541" y="339" type="line"/>
      <point x="631" y="339" type="line"/>
      <point x="631" y="714" type="line"/>
      <point x="541" y="714" type="line"/>
    </contour>
    <contour>
      <point x="313" y="0" type="line"/>
      <point x="403" y="0" type="line"/>
      <point x="403" y="375" type="line"/>
      <point x="313" y="375" type="line"/>
    </contour>
    <contour>
      <point x="85" y="339" type="line"/>
      <point x="175" y="339" type="line"/>
      <point x="175" y="714" type="line"/>
      <point x="85" y="714" type="line"/>
    </contour>
  </outline>
</glyph>
<glyph name="u10C0F" format="2">
  <advance width="500"/>
  <unicode hex="10C0F"/>
  <outline>
    <contour>
      <point x="331" y="-9" type="curve"/>
      <point x="379" y="56" type="line"/>
      <point x="200" y="155"/>
      <point x="138" y="272"/>
      <point x="138" y="371" type="curve" smooth="yes"/>
      <point x="138" y="389"/>
      <point x="139" y="408"/>
      <point x="142" y="426" type="curve"/>
      <point x="398" y="254" type="line"/>
      <point x="449" y="321" type="line"/>
      <point x="171" y="505" type="line"/>
      <point x="196" y="546"/>
      <point x="236" y="588"/>
      <point x="302" y="632" type="curve"/>
      <point x="432" y="526" type="line"/>
      <point x="485" y="588" type="line"/>
      <point x="311" y="731" type="line"/>
      <point x="118" y="619"/>
      <point x="50" y="507"/>
      <point x="50" y="371" type="curve" smooth="yes"/>
      <point x="50" y="235"/>
      <point x="138" y="103"/>
    </contour>
  </outline>
</glyph>
<glyph name="u10C10" format="2">
  <advance width="562"/>
  <unicode hex="10C10"/>
  <outline>
    <contour>
      <point x="98" y="-14" type="line"/>
      <point x="253" y="202" type="line"/>
      <point x="408" y="-14" type="line"/>
      <point x="481" y="31" type="line"/>
      <point x="298" y="283" type="line"/>
      <point x="298" y="499" type="line"/>
      <point x="383" y="600" type="line"/>
      <point x="484" y="500" type="line"/>
      <point x="547" y="560" type="line"/>
      <point x="383" y="724" type="line"/>
      <point x="208" y="525" type="line"/>
      <point x="208" y="283" type="line"/>
      <point x="25" y="31" type="line"/>
    </contour>
  </outline>
</glyph>
<glyph name="u10C11" format="2">
  <advance width="619"/>
  <unicode hex="10C11"/>
  <outline>
    <contour>
      <point x="380" y="-33" type="line"/>
      <point x="599" y="180" type="line"/>
      <point x="599" y="184" type="line"/>
      <point x="429" y="346" type="line"/>
      <point x="429" y="350" type="line"/>
      <point x="599" y="530" type="line"/>
      <point x="599" y="534" type="line"/>
      <point x="412" y="738" type="line"/>
      <point x="342" y="682" type="line"/>
      <point x="479" y="534" type="line"/>
      <point x="479" y="530" type="line"/>
      <point x="307" y="350" type="line"/>
      <point x="307" y="345" type="line"/>
      <point x="479" y="184" type="line"/>
      <point x="479" y="180" type="line"/>
      <point x="322" y="30" type="line"/>
    </contour>
    <contour>
      <point x="93" y="-33" type="line"/>
      <point x="312" y="180" type="line"/>
      <point x="312" y="184" type="line"/>
      <point x="142" y="346" type="line"/>
      <point x="142" y="350" type="line"/>
      <point x="312" y="530" type="line"/>
      <point x="312" y="534" type="line"/>
      <point x="125" y="738" type="line"/>
      <point x="55" y="682" type="line"/>
      <point x="192" y="534" type="line"/>
      <point x="192" y="530" type="line"/>
      <point x="20" y="350" type="line"/>
      <point x="20" y="345" type="line"/>
      <point x="192" y="184" type="line"/>
      <point x="192" y="180" type="line"/>
      <point x="35" y="30" type="line"/>
    </contour>
  </outline>
</glyph>
<glyph name="u10C12" format="2">
  <advance width="680"/>
  <unicode hex="10C12"/>
  <outline>
    <contour>
      <point x="578" y="-24" type="line"/>
      <point x="636" y="37" type="line"/>
      <point x="429" y="236" type="line"/>
      <point x="429" y="240" type="line"/>
      <point x="660" y="481" type="line"/>
      <point x="660" y="485" type="line"/>
      <point x="416" y="738" type="line"/>
      <point x="346" y="682" type="line"/>
      <point x="540" y="485" type="line"/>
      <point x="540" y="481" type="line"/>
      <point x="307" y="240" type="line"/>
      <point x="307" y="235" type="line"/>
    </contour>
    <contour>
      <point x="291" y="-24" type="line"/>
      <point x="349" y="37" type="line"/>
      <point x="142" y="236" type="line"/>
      <point x="142" y="240" type="line"/>
      <point x="373" y="481" type="line"/>
      <point x="373" y="485" type="line"/>
      <point x="129" y="738" type="line"/>
      <point x="59" y="682" type="line"/>
      <point x="253" y="485" type="line"/>
      <point x="253" y="481" type="line"/>
      <point x="20" y="240" type="line"/>
      <point x="20" y="235" type="line"/>
    </contour>
  </outline>
</glyph>
<glyph name="u10C13" format="2">
  <advance width="586"/>
  <unicode hex="10C13"/>
  <outline>
    <contour>
      <point x="4" y="0" type="line"/>
      <point x="99" y="0" type="line"/>
      <point x="291" y="310" type="line"/>
      <point x="480" y="0" type="line"/>
      <point x="582" y="0" type="line"/>
      <point x="344" y="374" type="line"/>
      <point x="565" y="714" type="line"/>
      <point x="470" y="714" type="line"/>
      <point x="294" y="434" type="line"/>
      <point x="119" y="714" type="line"/>
      <point x="19" y="714" type="line"/>
      <point x="241" y="372" type="line"/>
    </contour>
  </outline>
</glyph>
<glyph name="u10C14" format="2">
  <advance width="786"/>
  <unicode hex="10C14"/>
  <outline>
    <contour>
      <point x="75" y="0" type="line"/>
      <point x="165" y="0" type="line"/>
      <point x="165" y="316" type="line"/>
      <point x="348" y="316" type="line"/>
      <point x="348" y="0" type="line"/>
      <point x="438" y="0" type="line"/>
      <point x="438" y="316" type="line"/>
      <point x="711" y="316" type="line"/>
      <point x="711" y="714" type="line"/>
      <point x="621" y="714" type="line"/>
      <point x="621" y="400" type="line"/>
      <point x="438" y="400" type="line"/>
      <point x="438" y="714" type="line"/>
      <point x="348" y="714" type="line"/>
      <point x="348" y="400" type="line"/>
      <point x="75" y="400" type="line"/>
    </contour>
  </outline>
</glyph>
<glyph name="u10C15" format="2">
  <advance width="786"/>
  <unicode hex="10C15"/>
  <outline>
    <contour>
      <point x="348" y="0" type="line"/>
      <point x="438" y="0" type="line"/>
      <point x="438" y="314" type="line"/>
      <point x="621" y="314" type="line"/>
      <point x="621" y="0" type="line"/>
      <point x="711" y="0" type="line"/>
      <point x="711" y="398" type="line"/>
      <point x="438" y="398" type="line"/>
      <point x="438" y="714" type="line"/>
      <point x="348" y="714" type="line"/>
      <point x="348" y="398" type="line"/>
      <point x="165" y="398" type="line"/>
      <point x="165" y="714" type="line"/>
      <point x="75" y="714" type="line"/>
      <point x="75" y="314" type="line"/>
      <point x="348" y="314" type="line"/>
    </contour>
  </outline>
</glyph>
<glyph name="u10C16" format="2">
  <advance width="581"/>
  <unicode hex="10C16"/>
  <outline>
    <contour>
      <point x="165" y="-6" type="line"/>
      <point x="397" y="88"/>
      <point x="531" y="227"/>
      <point x="531" y="361" type="curve" smooth="yes"/>
      <point x="531" y="519"/>
      <point x="386" y="635"/>
      <point x="163" y="724" type="curve"/>
      <point x="100" y="692" type="line"/>
      <point x="100" y="23" type="line"/>
    </contour>
    <contour>
      <point x="190" y="95" type="curve"/>
      <point x="190" y="622" type="line"/>
      <point x="361" y="545"/>
      <point x="441" y="452"/>
      <point x="441" y="359" type="curve" smooth="yes"/>
      <point x="441" y="245"/>
      <point x="308" y="147"/>
    </contour>
  </outline>
</glyph>
<glyph name="u10C17" format="2">
  <advance width="767"/>
  <unicode hex="10C17"/>
  <outline>
    <contour>
      <point x="384" y="27" type="curve" smooth="yes"/>
      <point x="555" y="27"/>
      <point x="717" y="159"/>
      <point x="717" y="359" type="curve" smooth="yes"/>
      <point x="717" y="559"/>
      <point x="555" y="689"/>
      <point x="385" y="689" type="curve" smooth="yes"/>
      <point x="205" y="689"/>
      <point x="50" y="554"/>
      <point x="50" y="360" type="curve" smooth="yes"/>
      <point x="50" y="160"/>
      <point x="205" y="27"/>
    </contour>
    <contour>
      <point x="384" y="108" type="curve" smooth="yes"/>
      <point x="250" y="108"/>
      <point x="141" y="211"/>
      <point x="141" y="359" type="curve" smooth="yes"/>
      <point x="141" y="506"/>
      <point x="250" y="609"/>
      <point x="385" y="609" type="curve" smooth="yes"/>
      <point x="519" y="609"/>
      <point x="625" y="506"/>
      <point x="625" y="359" type="curve" smooth="yes"/>
      <point x="625" y="211"/>
      <point x="519" y="108"/>
    </contour>
  </outline>
</glyph>
<glyph name="u10C18" format="2">
  <advance width="599"/>
  <unicode hex="10C18"/>
  <outline>
    <contour>
      <point x="261" y="0" type="line"/>
      <point x="351" y="0" type="line"/>
      <point x="351" y="112" type="line" smooth="yes"/>
      <point x="351" y="141"/>
      <point x="361" y="164"/>
      <point x="394" y="192" type="curve" smooth="yes"/>
      <point x="480" y="264"/>
      <point x="549" y="342"/>
      <point x="549" y="486" type="curve" smooth="yes"/>
      <point x="549" y="607"/>
      <point x="462" y="724"/>
      <point x="309" y="724" type="curve" smooth="yes"/>
      <point x="145" y="724"/>
      <point x="50" y="618"/>
      <point x="50" y="472" type="curve" smooth="yes"/>
      <point x="50" y="399"/>
      <point x="73" y="344"/>
      <point x="90" y="322" type="curve"/>
      <point x="181" y="322" type="line"/>
      <point x="163" y="348"/>
      <point x="140" y="408"/>
      <point x="140" y="475" type="curve" smooth="yes"/>
      <point x="140" y="566"/>
      <point x="194" y="641"/>
      <point x="299" y="641" type="curve" smooth="yes"/>
      <point x="394" y="641"/>
      <point x="459" y="578"/>
      <point x="459" y="470" type="curve" smooth="yes"/>
      <point x="459" y="384"/>
      <point x="418" y="322"/>
      <point x="344" y="260" type="curve" smooth="yes"/>
      <point x="279" y="206"/>
      <point x="261" y="172"/>
      <point x="261" y="113" type="curve" smooth="yes"/>
    </contour>
  </outline>
</glyph>
<glyph name="u10C19" format="2">
  <advance width="532"/>
  <unicode hex="10C19"/>
  <outline>
    <contour>
      <point x="100" y="0" type="line"/>
      <point x="190" y="0" type="line"/>
      <point x="190" y="183" type="line"/>
      <point x="407" y="275"/>
      <point x="482" y="360"/>
      <point x="482" y="451" type="curve" smooth="yes"/>
      <point x="482" y="532"/>
      <point x="420" y="631"/>
      <point x="160" y="723" type="curve"/>
      <point x="100" y="684" type="line"/>
    </contour>
    <contour>
      <point x="190" y="268" type="curve"/>
      <point x="190" y="629" type="line"/>
      <point x="342" y="562"/>
      <point x="392" y="499"/>
      <point x="392" y="447" type="curve" smooth="yes"/>
      <point x="392" y="398"/>
      <point x="349" y="339"/>
    </contour>
  </outline>
</glyph>
<glyph name="u10C1A" format="2">
  <advance width="478"/>
  <unicode hex="10C1A"/>
  <outline>
    <contour>
      <point x="288" y="0" type="line"/>
      <point x="378" y="0" type="line"/>
      <point x="378" y="563" type="line"/>
      <point x="69" y="746" type="line"/>
      <point x="20" y="676" type="line"/>
      <point x="288" y="517" type="line"/>
      <point x="288" y="359" type="line"/>
      <point x="69" y="490" type="line"/>
      <point x="20" y="420" type="line"/>
      <point x="288" y="261" type="line"/>
    </contour>
  </outline>
</glyph>
<glyph name="u10C1B" format="2">
  <advance width="544"/>
  <unicode hex="10C1B"/>
  <outline>
    <contour>
      <point x="227" y="0" type="line"/>
      <point x="317" y="0" type="line"/>
      <point x="317" y="255" type="line"/>
      <point x="529" y="477" type="line"/>
      <point x="272" y="724" type="line"/>
      <point x="213" y="665" type="line"/>
      <point x="411" y="477" type="line"/>
      <point x="272" y="328" type="line"/>
      <point x="74" y="516" type="line"/>
      <point x="15" y="457" type="line"/>
      <point x="227" y="255" type="line"/>
    </contour>
  </outline>
</glyph>
<glyph name="u10C1C" format="2">
  <advance width="633"/>
  <unicode hex="10C1C"/>
  <outline>
    <contour>
      <point x="100" y="0" type="line"/>
      <point x="190" y="0" type="line"/>
      <point x="190" y="308" type="line"/>
      <point x="443" y="308" type="line"/>
      <point x="443" y="0" type="line"/>
      <point x="533" y="0" type="line"/>
      <point x="533" y="392" type="line"/>
      <point x="190" y="392" type="line"/>
      <point x="190" y="630" type="line"/>
      <point x="443" y="630" type="line"/>
      <point x="443" y="515" type="line"/>
      <point x="533" y="515" type="line"/>
      <point x="533" y="714" type="line"/>
      <point x="100" y="714" type="line"/>
    </contour>
  </outline>
</glyph>
<glyph name="u10C1D" format="2">
  <advance width="515"/>
  <unicode hex="10C1D"/>
  <outline>
    <contour>
      <point x="165" y="-6" type="line"/>
      <point x="384" y="49"/>
      <point x="465" y="126"/>
      <point x="465" y="204" type="curve" smooth="yes"/>
      <point x="465" y="254"/>
      <point x="424" y="316"/>
      <point x="319" y="355" type="curve"/>
      <point x="438" y="412"/>
      <point x="465" y="465"/>
      <point x="465" y="521" type="curve" smooth="yes"/>
      <point x="465" y="593"/>
      <point x="393" y="663"/>
      <point x="163" y="724" type="curve"/>
      <point x="100" y="692" type="line"/>
      <point x="100" y="23" type="line"/>
    </contour>
    <contour>
      <point x="190" y="78" type="curve"/>
      <point x="190" y="338" type="line"/>
      <point x="314" y="293"/>
      <point x="375" y="242"/>
      <point x="375" y="200" type="curve" smooth="yes"/>
      <point x="375" y="161"/>
      <point x="309" y="112"/>
    </contour>
    <contour>
      <point x="190" y="369" type="curve"/>
      <point x="190" y="630" type="line"/>
      <point x="328" y="592"/>
      <point x="375" y="547"/>
      <point x="375" y="509" type="curve" smooth="yes"/>
      <point x="375" y="459"/>
      <point x="318" y="420"/>
    </contour>
  </outline>
</glyph>
<glyph name="u10C1E" format="2">
  <advance width="478"/>
  <unicode hex="10C1E"/>
  <outline>
    <contour>
      <point x="288" y="0" type="line"/>
      <point x="378" y="0" type="line"/>
      <point x="378" y="714" type="line"/>
      <point x="288" y="714" type="line"/>
      <point x="288" y="102" type="line"/>
      <point x="69" y="259" type="line"/>
      <point x="20" y="189" type="line"/>
    </contour>
  </outline>
</glyph>
<glyph name="u10C1F" format="2">
  <advance width="600"/>
  <unicode hex="10C1F"/>
  <outline>
    <contour>
      <point x="255" y="0" type="line"/>
      <point x="345" y="0" type="line"/>
      <point x="598" y="693" type="line"/>
      <point x="512" y="723" type="line"/>
      <point x="346" y="258" type="line" smooth="yes"/>
      <point x="325" y="198"/>
      <point x="309" y="147"/>
      <point x="300" y="100" type="curve"/>
      <point x="290" y="147"/>
      <point x="275" y="197"/>
      <point x="254" y="256" type="curve" smooth="yes"/>
      <point x="86" y="723" type="line"/>
      <point x="1" y="693" type="line"/>
    </contour>
  </outline>
</glyph>
<glyph name="u10C20" format="2">
  <advance width="566"/>
  <unicode hex="10C20"/>
  <outline>
    <contour>
      <point x="238" y="0" type="line"/>
      <point x="328" y="0" type="line"/>
      <point x="328" y="427" type="line"/>
      <point x="511" y="679" type="line"/>
      <point x="438" y="724" type="line"/>
      <point x="283" y="508" type="line"/>
      <point x="128" y="724" type="line"/>
      <point x="55" y="679" type="line"/>
      <point x="238" y="427" type="line"/>
    </contour>
  </outline>
</glyph>
<glyph name="u10C21" format="2">
  <advance width="753"/>
  <unicode hex="10C21"/>
  <outline>
    <contour>
      <point x="100" y="0" type="line"/>
      <point x="183" y="0" type="line"/>
      <point x="183" y="584" type="line"/>
      <point x="373" y="419" type="line"/>
      <point x="564" y="584" type="line"/>
      <point x="564" y="0" type="line"/>
      <point x="653" y="0" type="line"/>
      <point x="653" y="710" type="line"/>
      <point x="606" y="720" type="line"/>
      <point x="374" y="525" type="line"/>
      <point x="147" y="720" type="line"/>
      <point x="100" y="710" type="line"/>
    </contour>
  </outline>
</glyph>
<glyph name="u10C22" format="2">
  <advance width="785"/>
  <unicode hex="10C22"/>
  <outline>
    <contour>
      <point x="381" y="-19" type="line"/>
      <point x="770" y="354" type="line"/>
      <point x="381" y="728" type="line"/>
      <point x="328" y="673" type="line"/>
      <point x="448" y="558" type="line"/>
      <point x="276" y="408" type="line"/>
      <point x="46" y="609" type="line"/>
      <point x="46" y="504" type="line"/>
      <point x="216" y="355" type="line"/>
      <point x="46" y="207" type="line"/>
      <point x="46" y="102" type="line"/>
      <point x="276" y="303" type="line"/>
      <point x="449" y="151" type="line"/>
      <point x="328" y="33" type="line"/>
    </contour>
    <contour>
      <point x="506" y="206" type="line"/>
      <point x="336" y="355" type="line"/>
      <point x="506" y="503" type="line"/>
      <point x="660" y="354" type="line"/>
    </contour>
  </outline>
</glyph>
<glyph name="u10C23" format="2">
  <advance width="444"/>
  <unicode hex="10C23"/>
  <outline>
    <contour>
      <point x="73" y="-9" type="line"/>
      <point x="266" y="103"/>
      <point x="384" y="225"/>
      <point x="384" y="361" type="curve" smooth="yes"/>
      <point x="384" y="503"/>
      <point x="266" y="619"/>
      <point x="73" y="731" type="curve"/>
      <point x="25" y="661" type="line"/>
      <point x="199" y="558"/>
      <point x="294" y="460"/>
      <point x="294" y="361" type="curve" smooth="yes"/>
      <point x="294" y="262"/>
      <point x="202" y="163"/>
      <point x="26" y="62" type="curve"/>
    </contour>
  </outline>
</glyph>
<glyph name="u10C24" format="2">
  <advance width="804"/>
  <unicode hex="10C24"/>
  <outline>
    <contour>
      <point x="75" y="0" type="line"/>
      <point x="165" y="0" type="line"/>
      <point x="165" y="286" type="line"/>
      <point x="357" y="166" type="line"/>
      <point x="357" y="0" type="line"/>
      <point x="447" y="0" type="line"/>
      <point x="447" y="440" type="line"/>
      <point x="639" y="331" type="line"/>
      <point x="729" y="331" type="line"/>
      <point x="729" y="714" type="line"/>
      <point x="639" y="714" type="line"/>
      <point x="639" y="427" type="line"/>
      <point x="447" y="537" type="line"/>
      <point x="447" y="714" type="line"/>
      <point x="357" y="714" type="line"/>
      <point x="357" y="263" type="line"/>
      <point x="165" y="382" type="line"/>
      <point x="75" y="382" type="line"/>
    </contour>
  </outline>
</glyph>
<glyph name="u10C25" format="2">
  <advance width="912"/>
  <unicode hex="10C25"/>
  <outline>
    <contour>
      <point x="75" y="0" type="line"/>
      <point x="165" y="0" type="line"/>
      <point x="165" y="273" type="line"/>
      <point x="411" y="0" type="line"/>
      <point x="501" y="0" type="line"/>
      <point x="501" y="588" type="line"/>
      <point x="747" y="311" type="line"/>
      <point x="837" y="311" type="line"/>
      <point x="837" y="714" type="line"/>
      <point x="747" y="714" type="line"/>
      <point x="747" y="441" type="line"/>
      <point x="501" y="714" type="line"/>
      <point x="411" y="714" type="line"/>
      <point x="411" y="126" type="line"/>
      <point x="165" y="403" type="line"/>
      <point x="75" y="403" type="line"/>
    </contour>
  </outline>
</glyph>
<glyph name="u10C26" format="2">
  <advance width="807"/>
  <unicode hex="10C26"/>
  <outline>
    <contour>
      <point x="404" y="27" type="curve" smooth="yes"/>
      <point x="575" y="27"/>
      <point x="737" y="159"/>
      <point x="737" y="359" type="curve" smooth="yes"/>
      <point x="737" y="462"/>
      <point x="693" y="547"/>
      <point x="628" y="605" type="curve"/>
      <point x="570" y="544" type="line"/>
      <point x="616" y="500"/>
      <point x="645" y="435"/>
      <point x="645" y="359" type="curve" smooth="yes"/>
      <point x="645" y="211"/>
      <point x="539" y="108"/>
      <point x="404" y="108" type="curve" smooth="yes"/>
      <point x="270" y="108"/>
      <point x="161" y="211"/>
      <point x="161" y="359" type="curve" smooth="yes"/>
      <point x="161" y="438"/>
      <point x="192" y="505"/>
      <point x="242" y="549" type="curve"/>
      <point x="182" y="608" type="line"/>
      <point x="114" y="550"/>
      <point x="70" y="463"/>
      <point x="70" y="360" type="curve" smooth="yes"/>
      <point x="70" y="160"/>
      <point x="225" y="27"/>
    </contour>
    <contour>
      <point x="407" y="216" type="curve" smooth="yes"/>
      <point x="435" y="216"/>
      <point x="460" y="232"/>
      <point x="460" y="268" type="curve" smooth="yes"/>
      <point x="460" y="304"/>
      <point x="435" y="320"/>
      <point x="407" y="320" type="curve" smooth="yes"/>
      <point x="377" y="320"/>
      <point x="353" y="304"/>
      <point x="353" y="268" type="curve" smooth="yes"/>
      <point x="353" y="232"/>
      <point x="377" y="216"/>
    </contour>
    <contour>
      <point x="324" y="357" type="curve" smooth="yes"/>
      <point x="352" y="357"/>
      <point x="377" y="374"/>
      <point x="377" y="410" type="curve" smooth="yes"/>
      <point x="377" y="446"/>
      <point x="352" y="462"/>
      <point x="324" y="462" type="curve" smooth="yes"/>
      <point x="295" y="462"/>
      <point x="271" y="446"/>
      <point x="271" y="410" type="curve" smooth="yes"/>
      <point x="271" y="374"/>
      <point x="295" y="357"/>
    </contour>
    <contour>
      <point x="490" y="363" type="curve" smooth="yes"/>
      <point x="517" y="363"/>
      <point x="542" y="380"/>
      <point x="542" y="415" type="curve" smooth="yes"/>
      <point x="542" y="451"/>
      <point x="517" y="467"/>
      <point x="490" y="467" type="curve" smooth="yes"/>
      <point x="460" y="467"/>
      <point x="436" y="451"/>
      <point x="436" y="415" type="curve" smooth="yes"/>
      <point x="436" y="380"/>
      <point x="460" y="363"/>
    </contour>
  </outline>
</glyph>
<glyph name="u10C27" format="2">
  <advance width="807"/>
  <unicode hex="10C27"/>
  <outline>
    <contour>
      <point x="404" y="27" type="curve" smooth="yes"/>
      <point x="575" y="27"/>
      <point x="737" y="159"/>
      <point x="737" y="359" type="curve" smooth="yes"/>
      <point x="737" y="559"/>
      <point x="575" y="689"/>
      <point x="405" y="689" type="curve" smooth="yes"/>
      <point x="225" y="689"/>
      <point x="70" y="554"/>
      <point x="70" y="360" type="curve" smooth="yes"/>
      <point x="70" y="160"/>
      <point x="225" y="27"/>
    </contour>
    <contour>
      <point x="404" y="108" type="curve" smooth="yes"/>
      <point x="270" y="108"/>
      <point x="161" y="211"/>
      <point x="161" y="359" type="curve" smooth="yes"/>
      <point x="161" y="506"/>
      <point x="270" y="609"/>
      <point x="405" y="609" type="curve" smooth="yes"/>
      <point x="539" y="609"/>
      <point x="645" y="506"/>
      <point x="645" y="359" type="curve" smooth="yes"/>
      <point x="645" y="211"/>
      <point x="539" y="108"/>
    </contour>
    <contour>
      <point x="407" y="303" type="curve" smooth="yes"/>
      <point x="434" y="303"/>
      <point x="458" y="321"/>
      <point x="458" y="359" type="curve" smooth="yes"/>
      <point x="458" y="398"/>
      <point x="434" y="415"/>
      <point x="407" y="415" type="curve" smooth="yes"/>
      <point x="378" y="415"/>
      <point x="355" y="398"/>
      <point x="355" y="359" type="curve" smooth="yes"/>
      <point x="355" y="321"/>
      <point x="378" y="303"/>
    </contour>
  </outline>
</glyph>
<glyph name="u10C28" format="2">
  <advance width="409"/>
  <unicode hex="10C28"/>
  <outline>
    <contour>
      <point x="80" y="0" type="line"/>
      <point x="170" y="0" type="line"/>
      <point x="170" y="29" type="line" smooth="yes"/>
      <point x="170" y="108"/>
      <point x="231" y="167"/>
      <point x="384" y="252" type="curve"/>
      <point x="239" y="357" type="line"/>
      <point x="384" y="462" type="line"/>
      <point x="231" y="547"/>
      <point x="170" y="606"/>
      <point x="170" y="685" type="curve" smooth="yes"/>
      <point x="170" y="714" type="line"/>
      <point x="80" y="714" type="line"/>
      <point x="80" y="679" type="line" smooth="yes"/>
      <point x="80" y="594"/>
      <point x="131" y="523"/>
      <point x="250" y="456" type="curve"/>
      <point x="116" y="357" type="line"/>
      <point x="250" y="258" type="line"/>
      <point x="131" y="191"/>
      <point x="80" y="120"/>
      <point x="80" y="35" type="curve" smooth="yes"/>
    </contour>
  </outline>
</glyph>
<glyph name="u10C29" format="2">
  <advance width="453"/>
  <unicode hex="10C29"/>
  <outline>
    <contour>
      <point x="304" y="-20" type="line"/>
      <point x="367" y="40" type="line"/>
      <point x="169" y="238" type="line"/>
      <point x="407" y="476" type="line"/>
      <point x="150" y="734" type="line"/>
      <point x="89" y="671" type="line"/>
      <point x="284" y="476" type="line"/>
      <point x="45" y="238" type="line"/>
    </contour>
  </outline>
</glyph>
<glyph name="u10C2A" format="2">
  <advance width="426"/>
  <unicode hex="10C2A"/>
  <outline>
    <contour>
      <point x="86" y="-17" type="line"/>
      <point x="277" y="63"/>
      <point x="366" y="155"/>
      <point x="366" y="256" type="curve" smooth="yes"/>
      <point x="366" y="290"/>
      <point x="350" y="323"/>
      <point x="329" y="355" type="curve"/>
      <point x="350" y="387"/>
      <point x="366" y="420"/>
      <point x="366" y="454" type="curve" smooth="yes"/>
      <point x="366" y="556"/>
      <point x="277" y="648"/>
      <point x="86" y="729" type="curve"/>
      <point x="50" y="656" type="line"/>
      <point x="219" y="589"/>
      <point x="281" y="519"/>
      <point x="281" y="454" type="curve" smooth="yes"/>
      <point x="281" y="443"/>
      <point x="278" y="428"/>
      <point x="272" y="417" type="curve"/>
      <point x="251" y="435"/>
      <point x="223" y="457"/>
      <point x="194" y="474" type="curve"/>
      <point x="153" y="406" type="line"/>
      <point x="182" y="389"/>
      <point x="212" y="372"/>
      <point x="230" y="355" type="curve"/>
      <point x="212" y="338"/>
      <point x="180" y="320"/>
      <point x="151" y="303" type="curve"/>
      <point x="189" y="234" type="line"/>
      <point x="219" y="252"/>
      <point x="249" y="271"/>
      <point x="271" y="289" type="curve"/>
      <point x="277" y="278"/>
      <point x="281" y="267"/>
      <point x="281" y="256" type="curve" smooth="yes"/>
      <point x="281" y="191"/>
      <point x="219" y="121"/>
      <point x="50" y="55" type="curve"/>
    </contour>
  </outline>
</glyph>
<glyph name="u10C2B" format="2">
  <advance width="426"/>
  <unicode hex="10C2B"/>
  <outline>
    <contour>
      <point x="340" y="-17" type="curve"/>
      <point x="376" y="56" type="line"/>
      <point x="207" y="123"/>
      <point x="145" y="193"/>
      <point x="145" y="258" type="curve" smooth="yes"/>
      <point x="145" y="269"/>
      <point x="148" y="284"/>
      <point x="154" y="295" type="curve"/>
      <point x="175" y="277"/>
      <point x="203" y="255"/>
      <point x="232" y="238" type="curve"/>
      <point x="273" y="306" type="line"/>
      <point x="244" y="323"/>
      <point x="214" y="340"/>
      <point x="196" y="357" type="curve"/>
      <point x="214" y="374"/>
      <point x="246" y="392"/>
      <point x="275" y="409" type="curve"/>
      <point x="237" y="478" type="line"/>
      <point x="207" y="460"/>
      <point x="177" y="441"/>
      <point x="155" y="423" type="curve"/>
      <point x="149" y="434"/>
      <point x="145" y="445"/>
      <point x="145" y="456" type="curve" smooth="yes"/>
      <point x="145" y="521"/>
      <point x="207" y="591"/>
      <point x="376" y="657" type="curve"/>
      <point x="340" y="729" type="line"/>
      <point x="149" y="649"/>
      <point x="60" y="557"/>
      <point x="60" y="456" type="curve" smooth="yes"/>
      <point x="60" y="422"/>
      <point x="76" y="389"/>
      <point x="97" y="357" type="curve"/>
      <point x="76" y="325"/>
      <point x="60" y="292"/>
      <point x="60" y="258" type="curve" smooth="yes"/>
      <point x="60" y="156"/>
      <point x="149" y="64"/>
    </contour>
  </outline>
</glyph>
<glyph name="u10C2C" format="2">
  <advance width="764"/>
  <unicode hex="10C2C"/>
  <outline>
    <contour>
      <point x="382" y="-10" type="line"/>
      <point x="749" y="357" type="line"/>
      <point x="382" y="724" type="line"/>
      <point x="15" y="357" type="line"/>
    </contour>
    <contour>
      <point x="382" y="108" type="line"/>
      <point x="133" y="357" type="line"/>
      <point x="382" y="606" type="line"/>
      <point x="631" y="357" type="line"/>
    </contour>
    <contour>
      <point x="382" y="301" type="curve" smooth="yes"/>
      <point x="409" y="301"/>
      <point x="433" y="319"/>
      <point x="433" y="357" type="curve" smooth="yes"/>
      <point x="433" y="396"/>
      <point x="409" y="413"/>
      <point x="382" y="413" type="curve" smooth="yes"/>
      <point x="353" y="413"/>
      <point x="330" y="396"/>
      <point x="330" y="357" type="curve" smooth="yes"/>
      <point x="330" y="319"/>
      <point x="353" y="301"/>
    </contour>
  </outline>
</glyph>
<glyph name="u10C2D" format="2">
  <advance width="478"/>
  <unicode hex="10C2D"/>
  <outline>
    <contour>
      <point x="288" y="0" type="line"/>
      <point x="378" y="0" type="line"/>
      <point x="378" y="714" type="line"/>
      <point x="288" y="714" type="line"/>
      <point x="288" y="363" type="line"/>
      <point x="69" y="520" type="line"/>
      <point x="20" y="450" type="line"/>
      <point x="288" y="261" type="line"/>
    </contour>
  </outline>
</glyph>
<glyph name="u10C2E" format="2">
  <advance width="478"/>
  <unicode hex="10C2E"/>
  <outline>
    <contour>
      <point x="100" y="0" type="line"/>
      <point x="190" y="0" type="line"/>
      <point x="190" y="261" type="line"/>
      <point x="458" y="450" type="line"/>
      <point x="409" y="520" type="line"/>
      <point x="190" y="363" type="line"/>
      <point x="190" y="714" type="line"/>
      <point x="100" y="714" type="line"/>
    </contour>
  </outline>
</glyph>
<glyph name="u10C2F" format="2">
  <advance width="478"/>
  <unicode hex="10C2F"/>
  <outline>
    <contour>
      <point x="288" y="0" type="line"/>
      <point x="378" y="0" type="line"/>
      <point x="378" y="714" type="line"/>
      <point x="288" y="714" type="line"/>
      <point x="20" y="525" type="line"/>
      <point x="69" y="455" type="line"/>
      <point x="288" y="612" type="line"/>
    </contour>
  </outline>
</glyph>
<glyph name="u10C30" format="2">
  <advance width="633"/>
  <unicode hex="10C30"/>
  <outline>
    <contour>
      <point x="100" y="0" type="line"/>
      <point x="190" y="0" type="line"/>
      <point x="190" y="202" type="line"/>
      <point x="443" y="282" type="line"/>
      <point x="443" y="0" type="line"/>
      <point x="533" y="0" type="line"/>
      <point x="533" y="392" type="line"/>
      <point x="190" y="286" type="line"/>
      <point x="190" y="524" type="line"/>
      <point x="443" y="604" type="line"/>
      <point x="443" y="515" type="line"/>
      <point x="533" y="515" type="line"/>
      <point x="533" y="714" type="line"/>
      <point x="190" y="607" type="line"/>
      <point x="190" y="714" type="line"/>
      <point x="100" y="714" type="line"/>
    </contour>
  </outline>
</glyph>
<glyph name="u10C31" format="2">
  <advance width="606"/>
  <unicode hex="10C31"/>
  <outline>
    <contour>
      <point x="258" y="0" type="line"/>
      <point x="348" y="0" type="line"/>
      <point x="348" y="346" type="line"/>
      <point x="593" y="672" type="line"/>
      <point x="528" y="721" type="line"/>
      <point x="348" y="481" type="line"/>
      <point x="348" y="714" type="line"/>
      <point x="258" y="714" type="line"/>
      <point x="258" y="481" type="line"/>
      <point x="78" y="721" type="line"/>
      <point x="13" y="672" type="line"/>
      <point x="258" y="346" type="line"/>
    </contour>
  </outline>
</glyph>
<glyph name="u10C32" format="2">
  <advance width="566"/>
  <unicode hex="10C32"/>
  <outline>
    <contour>
      <point x="128" y="0" type="line"/>
      <point x="283" y="216" type="line"/>
      <point x="438" y="0" type="line"/>
      <point x="511" y="45" type="line"/>
      <point x="328" y="297" type="line"/>
      <point x="328" y="724" type="line"/>
      <point x="238" y="724" type="line"/>
      <point x="238" y="297" type="line"/>
      <point x="55" y="45" type="line"/>
    </contour>
  </outline>
</glyph>
<glyph name="u10C33" format="2">
  <advance width="560"/>
  <unicode hex="10C33"/>
  <outline>
    <contour>
      <point x="128" y="0" type="line"/>
      <point x="289" y="227" type="line"/>
      <point x="438" y="0" type="line"/>
      <point x="511" y="45" type="line"/>
      <point x="75" y="714" type="line"/>
      <point x="-34" y="714" type="line"/>
      <point x="239" y="300" type="line"/>
      <point x="55" y="45" type="line"/>
    </contour>
  </outline>
</glyph>
<glyph name="u10C34" format="2">
  <advance width="606"/>
  <unicode hex="10C34"/>
  <outline>
    <contour>
      <point x="60" y="0" type="curve"/>
      <point x="155" y="0" type="line"/>
      <point x="190" y="64"/>
      <point x="213" y="129"/>
      <point x="213" y="210" type="curve" smooth="yes"/>
      <point x="213" y="245"/>
      <point x="210" y="293"/>
      <point x="196" y="333" type="curve"/>
      <point x="416" y="205" type="line"/>
      <point x="416" y="0" type="line"/>
      <point x="506" y="0" type="line"/>
      <point x="506" y="714" type="line"/>
      <point x="416" y="714" type="line"/>
      <point x="416" y="297" type="line"/>
      <point x="141" y="455" type="line"/>
      <point x="87" y="410" type="line"/>
      <point x="112" y="350"/>
      <point x="126" y="287"/>
      <point x="126" y="215" type="curve" smooth="yes"/>
      <point x="126" y="143"/>
      <point x="104" y="70"/>
    </contour>
  </outline>
</glyph>
<glyph name="u10C35" format="2">
  <advance width="746"/>
  <unicode hex="10C35"/>
  <outline>
    <contour>
      <point x="100" y="0" type="line"/>
      <point x="190" y="0" type="line"/>
      <point x="190" y="588" type="line"/>
      <point x="566" y="191" type="line"/>
      <point x="656" y="191" type="line"/>
      <point x="656" y="714" type="line"/>
      <point x="566" y="714" type="line"/>
      <point x="566" y="321" type="line"/>
      <point x="190" y="714" type="line"/>
      <point x="100" y="714" type="line"/>
    </contour>
  </outline>
</glyph>
<glyph name="u10C36" format="2">
  <advance width="602"/>
  <unicode hex="10C36"/>
  <outline>
    <contour>
      <point x="412" y="0" type="line"/>
      <point x="502" y="0" type="line"/>
      <point x="502" y="714" type="line"/>
      <point x="412" y="714" type="line"/>
      <point x="40" y="399" type="line"/>
      <point x="40" y="310" type="line"/>
    </contour>
    <contour>
      <point x="412" y="112" type="line"/>
      <point x="123" y="357" type="line"/>
      <point x="412" y="605" type="line"/>
    </contour>
  </outline>
</glyph>
<glyph name="u10C37" format="2">
  <advance width="602"/>
  <unicode hex="10C37"/>
  <outline>
    <contour>
      <point x="100" y="0" type="line"/>
      <point x="190" y="0" type="line"/>
      <point x="562" y="310" type="line"/>
      <point x="562" y="399" type="line"/>
      <point x="190" y="714" type="line"/>
      <point x="100" y="714" type="line"/>
    </contour>
    <contour>
      <point x="190" y="112" type="line"/>
      <point x="190" y="605" type="line"/>
      <point x="479" y="357" type="line"/>
    </contour>
  </outline>
</glyph>
<glyph name="u10C38" format="2">
  <advance width="618"/>
  <unicode hex="10C38"/>
  <outline>
    <contour>
      <point x="277" y="0" type="curve"/>
      <point x="341" y="0" type="line"/>
      <point x="377" y="106"/>
      <point x="448" y="203"/>
      <point x="603" y="211" type="curve"/>
      <point x="603" y="293" type="line"/>
      <point x="469" y="286"/>
      <point x="395" y="232"/>
      <point x="354" y="179" type="curve"/>
      <point x="354" y="714" type="line"/>
      <point x="264" y="714" type="line"/>
      <point x="264" y="179" type="line"/>
      <point x="223" y="232"/>
      <point x="149" y="286"/>
      <point x="15" y="293" type="curve"/>
      <point x="15" y="211" type="line"/>
      <point x="170" y="203"/>
      <point x="241" y="106"/>
    </contour>
  </outline>
</glyph>
<glyph name="u10C39" format="2">
  <advance width="618"/>
  <unicode hex="10C39"/>
  <outline>
    <contour>
      <point x="264" y="0" type="line"/>
      <point x="354" y="0" type="line"/>
      <point x="354" y="535" type="line"/>
      <point x="395" y="482"/>
      <point x="469" y="428"/>
      <point x="603" y="421" type="curve"/>
      <point x="603" y="503" type="line"/>
      <point x="448" y="511"/>
      <point x="377" y="608"/>
      <point x="341" y="714" type="curve"/>
      <point x="277" y="714" type="line"/>
      <point x="241" y="608"/>
      <point x="170" y="511"/>
      <point x="15" y="503" type="curve"/>
      <point x="15" y="421" type="line"/>
      <point x="149" y="428"/>
      <point x="223" y="482"/>
      <point x="264" y="535" type="curve"/>
    </contour>
  </outline>
</glyph>
<glyph name="u10C3A" format="2">
  <advance width="606"/>
  <unicode hex="10C3A"/>
  <outline>
    <contour>
      <point x="416" y="0" type="line"/>
      <point x="506" y="0" type="line"/>
      <point x="506" y="714" type="line"/>
      <point x="416" y="714" type="line"/>
      <point x="416" y="509" type="line"/>
      <point x="196" y="381" type="line"/>
      <point x="210" y="421"/>
      <point x="213" y="469"/>
      <point x="213" y="504" type="curve" smooth="yes"/>
      <point x="213" y="585"/>
      <point x="190" y="650"/>
      <point x="155" y="714" type="curve"/>
      <point x="60" y="714" type="line"/>
      <point x="104" y="644"/>
      <point x="126" y="571"/>
      <point x="126" y="499" type="curve" smooth="yes"/>
      <point x="126" y="427"/>
      <point x="112" y="364"/>
      <point x="87" y="304" type="curve"/>
      <point x="141" y="259" type="line"/>
      <point x="416" y="417" type="line"/>
    </contour>
  </outline>
</glyph>
<glyph name="u10C3B" format="2">
  <advance width="601"/>
  <unicode hex="10C3B"/>
  <outline>
    <contour>
      <point x="411" y="0" type="line"/>
      <point x="501" y="0" type="line"/>
      <point x="501" y="714" type="line"/>
      <point x="411" y="714" type="line"/>
      <point x="165" y="441" type="line"/>
      <point x="165" y="714" type="line"/>
      <point x="75" y="714" type="line"/>
      <point x="75" y="311" type="line"/>
      <point x="165" y="311" type="line"/>
      <point x="411" y="588" type="line"/>
    </contour>
  </outline>
</glyph>
<glyph name="u10C3C" format="2">
  <advance width="618"/>
  <unicode hex="10C3C"/>
  <outline>
    <contour>
      <point x="264" y="0" type="line"/>
      <point x="354" y="0" type="line"/>
      <point x="354" y="499" type="line"/>
      <point x="439" y="600" type="line"/>
      <point x="540" y="500" type="line"/>
      <point x="603" y="560" type="line"/>
      <point x="439" y="724" type="line"/>
      <point x="309" y="576" type="line"/>
      <point x="179" y="724" type="line"/>
      <point x="15" y="560" type="line"/>
      <point x="78" y="500" type="line"/>
      <point x="179" y="600" type="line"/>
      <point x="264" y="499" type="line"/>
    </contour>
  </outline>
</glyph>
<glyph name="u10C3D" format="2">
  <advance width="523"/>
  <unicode hex="10C3D"/>
  <outline>
    <contour>
      <point x="325" y="0" type="curve"/>
      <point x="415" y="0" type="line"/>
      <point x="430" y="28"/>
      <point x="450" y="82"/>
      <point x="450" y="130" type="curve" smooth="yes"/>
      <point x="450" y="244"/>
      <point x="370" y="299"/>
      <point x="302" y="349" type="curve"/>
      <point x="340" y="518"/>
      <point x="381" y="572"/>
      <point x="453" y="572" type="curve"/>
      <point x="453" y="662" type="line"/>
      <point x="331" y="662"/>
      <point x="267" y="574"/>
      <point x="229" y="395" type="curve"/>
      <point x="178" y="434"/>
      <point x="136" y="480"/>
      <point x="136" y="549" type="curve" smooth="yes"/>
      <point x="136" y="626"/>
      <point x="187" y="651"/>
      <point x="197" y="661" type="curve"/>
      <point x="148" y="724" type="line"/>
      <point x="104" y="704"/>
      <point x="45" y="644"/>
      <point x="45" y="551" type="curve" smooth="yes"/>
      <point x="45" y="306"/>
      <point x="361" y="297"/>
      <point x="361" y="121" type="curve" smooth="yes"/>
      <point x="361" y="77"/>
      <point x="340" y="26"/>
    </contour>
  </outline>
</glyph>
<glyph name="u10C3F" format="2">
  <advance width="756"/>
  <unicode hex="10C3F"/>
  <outline>
    <contour>
      <point x="95" y="40" type="line"/>
      <point x="661" y="40" type="line"/>
      <point x="661" y="674" type="line"/>
      <point x="95" y="674" type="line"/>
    </contour>
    <contour>
      <point x="182" y="119" type="line"/>
      <point x="182" y="595" type="line"/>
      <point x="574" y="595" type="line"/>
      <point x="574" y="119" type="line"/>
    </contour>
  </outline>
</glyph>
<glyph name="u10C40" format="2">
  <advance width="764"/>
  <unicode hex="10C40"/>
  <outline>
    <contour>
      <point x="74" y="298" type="line"/>
      <point x="382" y="606" type="line"/>
      <point x="690" y="298" type="line"/>
      <point x="749" y="357" type="line"/>
      <point x="382" y="724" type="line"/>
      <point x="15" y="357" type="line"/>
    </contour>
  </outline>
</glyph>
<glyph name="u10C41" format="2">
  <advance width="572"/>
  <unicode hex="10C41"/>
  <outline>
    <contour>
      <point x="240" y="0" type="line"/>
      <point x="330" y="0" type="line"/>
      <point x="330" y="275" type="line"/>
      <point x="499" y="275" type="line"/>
      <point x="499" y="347" type="line"/>
      <point x="330" y="347" type="line"/>
      <point x="330" y="427" type="line"/>
      <point x="513" y="679" type="line"/>
      <point x="440" y="724" type="line"/>
      <point x="285" y="508" type="line"/>
      <point x="130" y="724" type="line"/>
      <point x="57" y="679" type="line"/>
      <point x="240" y="427" type="line"/>
      <point x="240" y="347" type="line"/>
      <point x="71" y="347" type="line"/>
      <point x="71" y="275" type="line"/>
      <point x="240" y="275" type="line"/>
    </contour>
  </outline>
</glyph>
<glyph name="u10C42" format="2">
  <advance width="636"/>
  <unicode hex="10C42"/>
  <outline>
    <contour>
      <point x="238" y="0" type="line"/>
      <point x="328" y="0" type="line"/>
      <point x="328" y="427" type="line"/>
      <point x="415" y="546" type="line"/>
      <point x="501" y="480" type="line"/>
      <point x="545" y="537" type="line"/>
      <point x="457" y="605" type="line"/>
      <point x="511" y="679" type="line"/>
      <point x="438" y="724" type="line"/>
      <point x="390" y="658" type="line"/>
      <point x="306" y="724" type="line"/>
      <point x="261" y="666" type="line"/>
      <point x="348" y="598" type="line"/>
      <point x="283" y="508" type="line"/>
      <point x="128" y="724" type="line"/>
      <point x="55" y="679" type="line"/>
      <point x="238" y="427" type="line"/>
    </contour>
  </outline>
</glyph>
<glyph name="u10C43" format="2">
  <advance width="648"/>
  <unicode hex="10C43"/>
  <outline>
    <contour>
      <point x="279" y="0" type="line"/>
      <point x="369" y="0" type="line"/>
      <point x="577" y="228" type="line"/>
      <point x="369" y="434" type="line"/>
      <point x="369" y="608" type="line"/>
      <point x="559" y="453" type="line"/>
      <point x="603" y="517" type="line"/>
      <point x="324" y="742" type="line"/>
      <point x="45" y="517" type="line"/>
      <point x="89" y="453" type="line"/>
      <point x="279" y="608" type="line"/>
      <point x="279" y="434" type="line"/>
      <point x="71" y="228" type="line"/>
    </contour>
    <contour>
      <point x="324" y="76" type="line"/>
      <point x="184" y="226" type="line"/>
      <point x="324" y="368" type="line"/>
      <point x="464" y="226" type="line"/>
    </contour>
  </outline>
</glyph>
<glyph name="u10C44" format="2">
  <advance width="764"/>
  <unicode hex="10C44"/>
  <outline>
    <contour>
      <point x="74" y="298" type="line"/>
      <point x="382" y="606" type="line"/>
      <point x="690" y="298" type="line"/>
      <point x="749" y="357" type="line"/>
      <point x="382" y="724" type="line"/>
      <point x="15" y="357" type="line"/>
    </contour>
    <contour>
      <point x="74" y="-10" type="line"/>
      <point x="382" y="298" type="line"/>
      <point x="690" y="-10" type="line"/>
      <point x="749" y="49" type="line"/>
      <point x="382" y="416" type="line"/>
      <point x="15" y="49" type="line"/>
    </contour>
  </outline>
</glyph>
<glyph name="u10C45" format="2">
  <advance width="606"/>
  <unicode hex="10C45"/>
  <outline>
    <contour>
      <point x="100" y="0" type="line"/>
      <point x="190" y="0" type="line"/>
      <point x="190" y="205" type="line"/>
      <point x="410" y="333" type="line"/>
      <point x="396" y="293"/>
      <point x="393" y="245"/>
      <point x="393" y="210" type="curve" smooth="yes"/>
      <point x="393" y="129"/>
      <point x="416" y="64"/>
      <point x="451" y="0" type="curve"/>
      <point x="546" y="0" type="line"/>
      <point x="502" y="70"/>
      <point x="480" y="143"/>
      <point x="480" y="215" type="curve" smooth="yes"/>
      <point x="480" y="287"/>
      <point x="494" y="350"/>
      <point x="519" y="410" type="curve"/>
      <point x="465" y="455" type="line"/>
      <point x="190" y="297" type="line"/>
      <point x="190" y="714" type="line"/>
      <point x="100" y="714" type="line"/>
    </contour>
  </outline>
</glyph>
<glyph name="u10C46" format="2">
  <advance width="746"/>
  <unicode hex="10C46"/>
  <outline>
    <contour>
      <point x="556" y="0" type="line"/>
      <point x="646" y="0" type="line"/>
      <point x="646" y="714" type="line"/>
      <point x="556" y="714" type="line"/>
      <point x="180" y="321" type="line"/>
      <point x="180" y="714" type="line"/>
      <point x="90" y="714" type="line"/>
      <point x="90" y="191" type="line"/>
      <point x="180" y="191" type="line"/>
      <point x="556" y="588" type="line"/>
    </contour>
  </outline>
</glyph>
<glyph name="u10C47" format="2">
  <advance width="771"/>
  <unicode hex="10C47"/>
  <outline>
    <contour>
      <point x="605" y="-20" type="line"/>
      <point x="673" y="38"/>
      <point x="717" y="125"/>
      <point x="717" y="228" type="curve" smooth="yes"/>
      <point x="717" y="374"/>
      <point x="634" y="484"/>
      <point x="520" y="533" type="curve"/>
      <point x="678" y="714" type="line"/>
      <point x="564" y="714" type="line"/>
      <point x="432" y="557" type="line"/>
      <point x="430" y="557"/>
      <point x="429" y="558"/>
      <point x="428" y="558" type="curve"/>
      <point x="428" y="714" type="line"/>
      <point x="338" y="714" type="line"/>
      <point x="338" y="558" type="line"/>
      <point x="184" y="537"/>
      <point x="50" y="411"/>
      <point x="50" y="229" type="curve" smooth="yes"/>
      <point x="50" y="126"/>
      <point x="94" y="41"/>
      <point x="159" y="-17" type="curve"/>
      <point x="217" y="44" type="line"/>
      <point x="171" y="88"/>
      <point x="142" y="153"/>
      <point x="142" y="229" type="curve" smooth="yes"/>
      <point x="142" y="377"/>
      <point x="248" y="480"/>
      <point x="383" y="480" type="curve" smooth="yes"/>
      <point x="517" y="480"/>
      <point x="626" y="377"/>
      <point x="626" y="229" type="curve" smooth="yes"/>
      <point x="626" y="150"/>
      <point x="595" y="83"/>
      <point x="545" y="39" type="curve"/>
    </contour>
  </outline>
</glyph>
<glyph name="u10C48" format="2">
  <advance width="786"/>
  <unicode hex="10C48"/>
  <outline>
    <contour>
      <point x="100" y="0" type="line"/>
      <point x="188" y="0" type="line"/>
      <point x="394" y="289" type="line"/>
      <point x="603" y="0" type="line"/>
      <point x="686" y="0" type="line"/>
      <point x="686" y="714" type="line"/>
      <point x="603" y="714" type="line"/>
      <point x="394" y="424" type="line"/>
      <point x="188" y="714" type="line"/>
      <point x="100" y="714" type="line"/>
    </contour>
    <contour>
      <point x="188" y="150" type="line"/>
      <point x="188" y="563" type="line"/>
      <point x="192" y="563" type="line"/>
      <point x="342" y="357" type="line"/>
      <point x="192" y="150" type="line"/>
    </contour>
    <contour>
      <point x="599" y="144" type="line"/>
      <point x="447" y="357" type="line"/>
      <point x="599" y="569" type="line"/>
      <point x="603" y="569" type="line"/>
      <point x="603" y="144" type="line"/>
    </contour>
  </outline>
</glyph>
<glyph name="u10C32_uni200D_u10C03" format="2">
	<advance width="616"/>
	<outline>
		<contour>
			<point x="128" y="0" type="line"/>
			<point x="283" y="216" type="line"/>
			<point x="438" y="0" type="line"/>
			<point x="511" y="45" type="line"/>
			<point x="328" y="297" type="line"/>
			<point x="328" y="622" type="line"/>
			<point x="547" y="465" type="line"/>
			<point x="596" y="535" type="line"/>
			<point x="328" y="724" type="line"/>
			<point x="238" y="724" type="line"/>
			<point x="238" y="297" type="line"/>
			<point x="55" y="45" type="line"/>
		</contour>
	</outline>
</glyph>
